<svg color="white" width="1rem" height="1.2rem" viewBox="0 0 185 216" version="1.1" xmlns="http://www.w3.org/2000/svg" xmlns:xlink="http://www.w3.org/1999/xlink" xml:space="preserve" style="fill-rule: evenodd; clip-rule: evenodd; stroke-linejoin: round; stroke-miterlimit: 2;"><g transform="matrix(1,0,0,1,-163.42,-298.561)"><g transform="matrix(1,0,0,1,255.194,514.354)"><path d="M0,-215.793L56.428,-182.928L35.965,-170.526L0.62,-191.609L-35.346,-170.526L-55.809,-182.928L0,-215.793ZM0,-174.247L21.083,-161.845L0,-149.443L-20.463,-161.845L0,-174.247ZM71.311,-174.247L92.394,-161.845L92.394,-137.661L71.311,-125.259L71.311,-149.443L50.848,-161.845L71.311,-174.247ZM-71.311,-174.247L-50.228,-161.845L-71.311,-149.443L-71.311,-125.259L-91.774,-137.661L-91.774,-161.845L-71.311,-174.247ZM56.428,-99.216L56.428,-75.032L35.965,-62.63L35.965,-86.814L56.428,-99.216ZM-56.429,-99.216L-35.966,-86.814L-35.966,-62.63L-56.429,-75.032L-56.429,-99.216ZM35.345,-153.164L56.428,-140.762L56.428,-116.578L21.083,-95.495L21.083,-53.328L0.62,-40.927L-19.843,-53.328L-19.843,-95.495L-56.429,-116.578L-56.429,-140.762L-35.346,-153.164L0,-132.081L35.345,-153.164ZM91.773,-120.299L91.773,-53.948L35.345,-21.084L35.345,-45.268L70.69,-66.351L70.69,-107.897L91.773,-120.299ZM-91.774,-120.299L-71.311,-107.897L-71.311,-66.351L-35.966,-45.268L-35.966,-21.084L-91.774,-53.948L-91.774,-120.299ZM21.083,-36.586L21.083,-12.402L0,0L-20.463,-12.402L-20.463,-36.586L0,-24.184L21.083,-36.586Z" style="fill: currentcolor; fill-rule: nonzero;"></path></g></g></svg>