<svg color="white" width="1rem" height="1.2rem" viewBox="0 0 102 104" version="1.1" xmlns="http://www.w3.org/2000/svg" xmlns:xlink="http://www.w3.org/1999/xlink" xml:space="preserve" style="fill-rule: evenodd; clip-rule: evenodd; stroke-linejoin: round; stroke-miterlimit: 2;"><g transform="matrix(1,0,0,1,-280.135,-297.676)"><g transform="matrix(1,0,0,1,259.935,27.7757)"><path d="M108.6,331.6C106.8,332.7 104.7,332.9 103.1,332C101.1,330.8 99.9,328.1 99.9,324.4L99.9,313.1C99.9,307.7 97.8,303.8 94.2,302.8C88.1,301 83.5,308.5 81.8,311.3L71,328.6L71,307.3C70.9,302.4 69.3,299.5 66.3,298.6C64.3,298 61.3,298.3 58.4,302.7L34.3,341.3C31.1,335.2 29.4,328.4 29.4,321.5C29.4,298.2 48.1,279.3 71,279.3C93.9,279.3 112.6,298.2 112.6,321.5L112.6,321.7C112.8,326.2 111.4,329.8 108.6,331.6ZM121.8,321.5L121.8,321.3C121.7,293 98.9,269.9 71,269.9C43,269.9 20.2,293 20.2,321.5C20.2,349.9 43,373.1 71,373.1C83.9,373.1 96.1,368.2 105.5,359.3C107.4,357.5 107.5,354.6 105.7,352.7C104,350.8 101.1,350.7 99.2,352.4L99.1,352.5C91.5,359.7 81.3,363.8 70.8,363.8C58.5,363.8 47.5,358.4 39.9,349.8L61.6,315L61.6,331.1C61.6,338.8 64.6,341.3 67.1,342C69.6,342.7 73.4,342.2 77.5,335.7L89.4,316.4C89.8,315.8 90.1,315.2 90.5,314.8L90.5,324.6C90.5,331.8 93.4,337.6 98.4,340.4C102.9,343 108.6,342.7 113.3,339.8C119.1,336 122.2,329.4 121.8,321.5Z" style="fill: currentcolor; fill-rule: nonzero;"></path></g></g></svg>