<svg color="white" width="1rem" height="1.2rem" viewBox="0 0 77 77" version="1.1" xmlns="http://www.w3.org/2000/svg" xmlns:xlink="http://www.w3.org/1999/xlink" xml:space="preserve" style="fill-rule: evenodd; clip-rule: evenodd; stroke-linejoin: round; stroke-miterlimit: 2;"><g transform="matrix(1,0,0,1,-0.25,-0.199567)"><g transform="matrix(1,0,0,1,-360.968,-195.553)"><g transform="matrix(1,0,0,1,0.25,0.200001)"><g transform="matrix(1,0,0,1,329.868,122.453)"><path d="M69.3,73.1C90.5,73.1 107.6,90.2 107.6,111.5C107.6,132.5 90.3,149.8 69,149.7C48.4,149.5 31.1,132.5 31.1,111.4C31.1,90.2 48.1,73 69.3,73.1ZM79.146,95.626C79.197,95.65 79.249,95.675 79.3,95.7C81.8,96.7 84.4,97.7 87,98.5C89.7,99.3 92.4,100.2 94.7,101.9C97.6,104.1 98.4,106.9 97.1,110.3C96.3,112.4 94.8,114 93.3,115.6C90.6,118.4 87.7,121 85.1,123.9C82.1,127.4 79.4,131 77.5,135.2C75.9,138.7 75.004,142.34 75.604,146.14C75.583,146.15 75.948,146.108 76,146.1C78.5,145.7 80.9,144.9 83.3,143.9C91.1,140.5 97,135 100.8,127.4C104.2,120.7 105.3,113.6 104.2,106.2C103.2,99.1 100.2,92.9 95.4,87.7C89,80.4 80.8,76.6 71.1,76C66.8,75.7 62.5,76.3 58.4,77.7C51.7,79.9 46.2,83.7 41.7,89.2C36.6,95.5 34.1,102.7 33.8,110.7C33.7,112.7 33.9,114.6 34.2,116.6C34.8,121.1 36.3,125.4 38.6,129.3C39.2,129.9 39.6,130.7 40.2,131.4C40.2,131.529 40.243,131.629 40.308,131.715C40.242,131.576 40.2,131.438 40.2,131.3C42.6,125.9 43.5,120.2 44,114.4C44.2,111.7 44.3,109 44.8,106.3C45.3,103.2 46.5,100.4 48.7,98C50.7,95.9 53.2,94.5 55.9,93.5C58.1,92.6 60.4,91.8 62.9,91.7C65.181,91.601 67.363,91.895 69.544,92.387C71.631,91.797 73.815,91.606 75.9,92.4C77.445,92.979 78.616,94.024 79.146,95.626ZM88.8,110.9C89.6,110.9 90.3,110.2 90.3,109.3C90.3,108.5 89.6,107.8 88.7,107.9C87.9,107.9 87.3,108.6 87.3,109.4C87.3,110.3 87.9,110.9 88.8,110.9ZM64.3,95.8C60.5,95.8 57.4,98.9 57.4,102.6C57.4,106.4 60.5,109.4 64.2,109.5C68,109.5 71,106.4 71.1,102.6C71.1,98.8 68.1,95.8 64.3,95.8Z" style="fill: currentcolor;"></path></g><g transform="matrix(1,0,0,1,329.868,122.453)"><path d="M69.1,102.7C69.1,105.3 67,107.5 64.4,107.5L64.3,107.5C61.7,107.5 59.5,105.4 59.5,102.7L59.5,102.6C59.5,99.9 61.7,97.8 64.3,97.8C66.9,97.8 69.1,100 69.1,102.7Z" style="fill: currentcolor;"></path></g></g></g></g></svg>