<svg version="1.0" xmlns="http://www.w3.org/2000/svg"
    width="15.99"
    height="16.19" viewBox="0 0 180.000000 180.000000"
 preserveAspectRatio="xMidYMid meet"
 >
<g transform="translate(0.000000,180.000000) scale(0.050000,-0.050000)"
 style="fill: currentcolor;" stroke="none">
<path d="M1360 3572 c0 -15 -20 -33 -45 -39 -25 -7 -108 -53 -185 -104 -143
-93 -152 -94 -299 -58 -145 37 -248 -189 -169 -372 l43 -98 -63 -97 c-104
-164 -142 -359 -142 -742 0 -375 -32 -627 -113 -892 -88 -291 -87 -367 8 -467
93 -97 139 -103 262 -33 115 66 107 69 249 -80 140 -146 181 -158 314 -90 111
57 108 58 232 -135 295 -461 401 -461 695 0 120 187 136 197 238 135 116 -71
169 -56 309 90 142 149 133 146 258 80 262 -139 390 77 269 455 -90 282 -121
500 -121 859 0 420 -23 566 -123 769 -77 158 -78 166 -49 223 107 208 -13 438
-202 385 -107 -29 -103 -31 -256 70 -76 49 -158 95 -184 102 -25 6 -46 24 -46
39 0 23 -77 28 -440 28 -363 0 -440 -5 -440 -28z m666 -201 c167 -36 355 -127
473 -230 104 -91 143 -86 266 34 100 97 95 52 -12 -111 -115 -177 -361 -411
-579 -553 l-176 -115 -67 32 c-84 40 -176 41 -252 2 -131 -68 -617 308 -837
650 -106 163 -104 194 5 90 125 -120 155 -123 273 -21 248 210 577 291 906
222z m-1014 -853 c-86 -214 25 -406 266 -463 l104 -25 -6 -78 c-6 -76 -10 -80
-183 -173 l-177 -95 174 -95 c254 -138 363 -320 520 -869 39 -138 76 -263 82
-280 6 -16 41 74 78 200 191 660 288 824 566 960 176 86 179 71 -36 186 -179
96 -180 97 -180 173 0 75 2 77 89 90 235 35 372 266 283 478 l-31 76 84 99
c105 122 103 122 154 -13 68 -183 79 -265 83 -620 4 -516 50 -795 181 -1099
33 -77 65 -153 72 -170 7 -16 -70 41 -172 128 -102 86 -188 153 -191 149 -3
-4 -53 -88 -112 -187 -58 -99 -115 -192 -127 -206 -15 -20 -51 4 -154 107
l-135 134 -29 -48 c-140 -229 -373 -614 -389 -644 -18 -34 -383 510 -438 654
-12 32 -25 25 -106 -51 -50 -48 -116 -108 -145 -133 l-53 -46 -116 196 c-63
108 -122 205 -130 214 -8 10 -94 -50 -191 -133 -207 -177 -209 -177 -126 -12
116 231 181 541 191 918 15 567 22 644 69 780 75 218 68 215 171 88 l91 -111
-31 -79z m448 -218 c102 -42 64 -80 -83 -80 -144 0 -217 60 -217 178 0 84 14
85 131 3 60 -42 135 -87 169 -101z m986 139 c39 -147 -132 -257 -321 -206 -64
17 -56 31 39 77 46 22 120 69 165 104 97 76 103 78 117 25z m-531 -191 c70
-45 126 -178 139 -331 12 -136 14 -140 89 -183 74 -43 98 -74 57 -74 -93 0
-284 -290 -352 -535 -43 -157 -51 -156 -95 8 -61 228 -173 412 -305 502 l-74
51 78 40 c102 52 107 62 108 206 0 268 179 427 355 316z"/>
</g>
</svg>
