<svg color="white" width="1rem" height="1.2rem" viewBox="0 0 171 192" version="1.1" xmlns="http://www.w3.org/2000/svg" xmlns:xlink="http://www.w3.org/1999/xlink" xml:space="preserve" style="fill-rule: evenodd; clip-rule: evenodd; stroke-linejoin: round; stroke-miterlimit: 2;"><g transform="matrix(1,0,0,1,-64.1248,-44.0985)"><g transform="matrix(0.1,0,0,-0.1,0,281)"><g transform="matrix(10,0,0,-10,0,2810)"><path d="M149.75,44.098L194,67L163,80.7L149.75,73L135,80.7L105.5,66L149.75,44.098Z" style="fill: currentcolor; fill-rule: nonzero;"></path></g><g transform="matrix(10,0,0,-10,0,2810)"><path d="M212,76.097L234.5,87L233.836,118.597L97.556,180.012L115.098,190.844L85.345,204.448L64.125,193.633L64.698,161.719L202.692,101.344L182.373,89.017L212,76.097Z" style="fill: currentcolor; fill-rule: nonzero;"></path></g><g transform="matrix(10,0,0,-10,0,2810)"><path d="M64.221,140.321L64.213,86.769L89.177,74.179L148.209,103.704L119.854,115.967L90.236,100.425L89.453,129.43L64.221,140.321Z" style="fill: currentcolor; fill-rule: nonzero;"></path></g><g transform="matrix(10,0,0,-10,0,2810)"><path d="M134.988,200.942L149.007,208.393L166.551,200.549L194.194,214.286L149.094,235.59L105.657,213.554L134.988,200.942Z" style="fill: currentcolor; fill-rule: nonzero;"></path></g><g transform="matrix(10,0,0,-10,0,2810)"><path d="M179.046,164.519L151.771,175.657L209.511,205.923L234.914,192.706L234.304,139.448L208.147,150.336L209.536,179.857L179.046,164.519Z" style="fill: currentcolor; fill-rule: nonzero;"></path></g></g></g></svg>