<svg color="white" width="1rem" height="1rem" viewBox="0 0 32 32" version="1.1" xmlns="http://www.w3.org/2000/svg" xmlns:xlink="http://www.w3.org/1999/xlink" xml:space="preserve" style=" clip-rule: evenodd; stroke-linejoin: round; stroke-miterlimit: 2;"><g><path d="M5.7,5C5.2,2.4 7.2,0 9.8,0C12.1,0 14,1.9 14,4.2L14,9.4C14.6,9.4 15.2,9.3 15.8,9.3C16.4,9.3 16.9,9.3 17.5,9.4L17.5,4.2C17.5,1.9 19.4,0 21.7,0C24.3,0 26.3,2.4 25.9,5L24.8,11.1C28.7,12.8 31.7,15.8 31.7,19.5L31.7,21.8C31.7,24.9 29.7,27.5 26.8,29.2C23.9,31 20.1,32 15.8,32C11.5,32 7.7,31 4.8,29.2C2,27.5 0,24.9 0,21.8L0,19.5C0,15.8 2.9,12.8 6.8,11.1L5.7,5ZM23.3,11.9L24.6,4.7C24.9,2.9 23.6,1.2 21.7,1.2C20.1,1.2 18.8,2.5 18.8,4.1L18.8,10.7C18.4,10.6 17.9,10.6 17.5,10.6C16.9,10.6 16.4,10.5 15.8,10.5C15.2,10.5 14.6,10.5 14,10.6C13.6,10.6 13.1,10.7 12.7,10.7L12.7,4.2C12.7,2.6 11.4,1.3 9.8,1.3C8,1.3 6.6,3 7,4.8L8.3,12C4.1,13.6 1.3,16.4 1.3,19.6L1.3,21.9C1.3,26.8 7.8,30.8 15.8,30.8C23.8,30.8 30.3,26.8 30.3,21.9L30.3,19.6C30.4,16.3 27.6,13.5 23.3,11.9Z" style="fill: currentcolor;"></path><path d="M11.8,18.9C11.8,20.2 11.1,21.3 10.2,21.3C9.3,21.3 8.6,20.2 8.6,18.9C8.6,17.6 9.3,16.5 10.2,16.5C11.1,16.5 11.8,17.6 11.8,18.9Z" style="fill: currentcolor; fill-rule: nonzero;"></path><path d="M22.9,18.9C22.9,20.2 22.2,21.3 21.3,21.3C20.4,21.3 19.7,20.2 19.7,18.9C19.7,17.6 20.4,16.5 21.3,16.5C22.2,16.5 22.9,17.6 22.9,18.9Z" style="fill: currentcolor; fill-rule: nonzero;"></path></g></svg>