<svg 
    xmlns="http://www.w3.org/2000/svg"
    width="15.99"
    height="16.19"
    viewBox="0 0 250.000000 250.000000"
    preserveAspectRatio="xMidYMid meet"
>
<g
    transform="translate(0.000000,250.000000) scale(0.050000,-0.050000)"
     style="fill: currentcolor;"
    stroke="none"
>
    <path
        d="M2270 4870 c-261 -148 -645 -369 -990 -570 -137 -80 -308 -178 -378 -218 l-128 -72 11 -1236 c10 -1196 9 -1236 -27 -1255 -32 -17 -38 -44 -38 -156 l0 -136 85 -39 85 -38 3 -190 c5 -249 4 -240 28 -240 24 0 433 -234 483 -276 41 -34 65 -26 208 68 90 60 114 68 139 47 27 -23 123 -78 729 -424 254 -145 206 -145 460 0 501 285 478 269 466 330 -12 61 6 69 66 27 37 -26 56 -20 219 73 99 55 258 146 354 200 l175 100 0 234 0 234 -71 34 -71 33 -135 -80 c-75 -44 -145 -80 -157 -80 -13 0 -26 -7 -29 -16 -4 -8 -50 -40 -102 -71 -105 -61 -138 -30 -45 43 52 42 68 104 25 103 -29 0 -125 -148 -125 -192 0 -25 -382 -268 -640 -407 -33 -17 -96 -55 -140 -82 -44 -28 -116 -71 -160 -95 l-80 -45 -150 86 c-234 134 -280 172 -280 231 0 28 6 46 13 39 7 -8 25 2 40 21 26 33 28 33 55 -1 35 -44 53 -8 37 75 -8 40 -4 53 12 43 13 -8 23 -3 24 12 1 32 119 -103 119 -137 0 -13 -31 -34 -68 -46 -71 -24 -114 -81 -61 -81 48 0 369 158 369 182 0 13 -23 16 -62 8 -59 -13 -60 -12 -37 31 19 36 18 48 -5 61 -22 12 -27 44 -21 123 9 105 8 107 -63 145 -40 22 -72 44 -72 50 0 6 -56 79 -125 162 -69 83 -233 284 -363 446 l-238 294 13 246 c15 273 9 287 -123 334 -78 27 -81 60 -11 93 47 22 65 17 161 -37 l108 -62 -3 -271 -3 -271 118 -142 c65 -78 228 -279 363 -446 l244 -303 234 135 c129 75 357 206 505 292 149 86 383 221 520 300 138 79 295 170 350 203 l100 60 0 198 0 199 70 22 70 23 0 128 c0 125 -1 127 -72 166 l-73 38 5 438 5 438 -72 46 c-40 26 -136 83 -213 128 -358 206 -544 313 -800 463 -160 94 -240 139 -540 310 l-80 45 -220 -125z m446 -191 c112 -66 204 -128 204 -137 0 -10 16 -16 35 -15 19 2 33 -9 30 -23 -4 -15 3 -22 13 -15 28 17 123 -31 108 -55 -7 -11 -3 -15 8 -8 11 7 37 0 58 -16 21 -16 53 -29 71 -29 19 -1 37 -9 40 -18 9 -21 324 -206 412 -241 36 -15 65 -33 65 -40 0 -14 78 -48 190 -82 150 -46 161 -36 -370 -340 -771 -442 -1038 -600 -1051 -622 -14 -22 153 -7 169 15 7 10 21 19 33 21 11 2 86 40 167 86 80 46 148 80 151 76 36 -40 22 -90 -33 -126 -71 -45 -126 -116 -147 -189 -16 -57 -33 -66 203 115 144 110 535 314 645 336 52 11 84 0 169 -57 101 -67 109 -69 163 -40 54 28 56 27 43 -8 -49 -125 -41 -150 74 -232 32 -23 21 -32 -100 -84 -275 -117 -616 -367 -595 -434 16 -52 -9 -160 -35 -145 -11 7 -16 42 -12 78 7 64 3 68 -223 200 -127 75 -260 153 -294 173 l-64 38 6 -132 6 -132 97 -64 c54 -36 154 -92 223 -124 150 -71 152 -84 25 -154 l-100 -55 -1 -135 0 -135 -109 -63 c-133 -77 -122 -99 -110 216 l10 267 75 40 c97 52 95 70 -7 70 -67 0 -95 -13 -150 -68 l-68 -68 0 -226 c0 -125 11 -255 24 -292 24 -66 24 -67 -103 -181 -70 -63 -137 -115 -149 -115 -21 0 -30 325 -31 1201 l-1 320 -215 123 c-118 67 -323 185 -455 261 -132 77 -330 192 -440 255 -521 300 -534 313 -360 341 84 14 390 158 415 197 8 12 15 16 15 9 0 -7 232 121 515 284 283 164 524 298 536 299 12 0 113 -54 225 -121z m1264 -1109 c0 -191 5 -185 -115 -128 -57 28 -109 39 -151 32 -84 -13 -516 -218 -551 -261 -38 -45 -76 -42 -89 7 -7 27 3 47 28 61 21 11 38 13 38 5 0 -9 7 -7 15 4 22 29 79 64 211 127 63 30 108 63 100 72 -9 10 -6 12 6 5 12 -7 125 45 250 116 280 159 258 163 258 -40z m-2777 36 c63 -36 123 -66 135 -66 12 0 22 -8 22 -18 0 -10 25 -28 55 -40 30 -12 79 -38 108 -57 125 -82 278 -165 305 -165 16 0 32 -8 35 -18 7 -18 105 -81 197 -126 28 -14 55 -31 60 -38 6 -7 40 -28 76 -46 36 -19 71 -47 77 -63 6 -16 19 -24 29 -18 25 16 40 -63 45 -245 5 -159 4 -162 -39 -145 -24 9 -49 11 -56 4 -7 -6 -13 6 -14 27 -1 23 -5 28 -12 12 -7 -20 -17 -17 -40 10 -18 22 -24 24 -16 6 11 -26 9 -25 -14 1 -39 46 -156 124 -157 105 0 -9 -14 9 -31 40 -17 31 -39 49 -52 42 -13 -8 -17 -5 -9 8 16 25 -153 190 -201 197 -17 2 -39 15 -47 28 -8 13 -24 18 -35 11 -11 -7 -24 -1 -29 13 -7 20 -22 20 -72 2 -34 -13 -68 -16 -74 -6 -5 9 -25 12 -43 5 -22 -9 -28 -5 -18 11 8 13 3 23 -10 23 -13 0 -66 24 -116 54 -51 30 -102 56 -113 58 -12 2 -53 34 -91 71 l-69 67 7 164 c8 194 22 200 207 92z m-55 -449 c311 -177 329 -194 242 -233 -27 -13 -50 -37 -50 -54 0 -16 -8 -30 -17 -30 -9 0 -19 -123 -21 -274 -3 -151 -10 -283 -17 -293 -6 -11 2 -15 19 -8 34 13 28 -52 -9 -99 -10 -13 -13 -32 -7 -42 6 -10 -1 -35 -16 -55 -15 -21 -24 -47 -20 -58 4 -12 -9 -42 -28 -67 -37 -48 -62 -45 -169 16 -19 11 -51 28 -69 37 -32 15 -35 69 -37 585 -2 312 -9 593 -16 623 -19 77 3 72 215 -48z m2865 -379 c1 -15 3 -39 5 -53 1 -14 23 -25 49 -25 49 0 56 -135 12 -253 -32 -86 -202 -183 -258 -148 -34 21 28 82 124 122 51 22 55 32 55 144 l0 120 -45 -33 c-25 -18 -74 -48 -110 -66 -62 -32 -65 -39 -65 -148 l0 -114 -110 -62 c-137 -77 -130 -79 -130 24 0 80 8 92 92 155 95 72 136 124 113 147 -33 34 -15 77 59 141 104 88 203 112 209 49z m-2506 -339 c13 -292 23 -351 69 -404 17 -19 23 -35 15 -35 -9 0 2 -16 24 -35 22 -19 136 -154 253 -300 118 -146 221 -265 230 -265 8 0 27 -22 42 -50 15 -27 30 -46 35 -42 11 12 265 -229 265 -252 0 -9 -17 -8 -39 3 -21 12 -57 21 -80 21 -22 0 -41 12 -41 27 0 15 -34 44 -75 65 -41 21 -102 57 -135 81 -33 23 -80 49 -105 56 -25 8 -45 21 -45 30 0 10 -22 7 -50 -6 -59 -28 -61 -42 -14 -103 l37 -46 22 58 c25 68 68 62 102 -14 29 -62 29 -64 -2 -63 -77 3 -95 -7 -95 -55 0 -54 -19 -63 -56 -26 -18 18 -34 14 -69 -18 -48 -44 -135 -94 -144 -83 -29 34 -72 146 -63 168 10 27 169 26 214 -2 24 -15 23 -1 -5 60 -13 28 -32 51 -43 51 -35 0 -174 -67 -174 -83 0 -9 -13 -11 -30 -4 -66 25 -32 83 70 117 111 37 118 48 62 98 -37 33 -39 33 -51 -6 -8 -23 -37 -60 -66 -83 l-53 -41 -36 46 c-49 64 -47 68 54 103 137 47 165 84 86 111 -35 12 -57 16 -49 9 7 -8 -24 -36 -70 -63 -80 -48 -84 -49 -110 -13 -50 68 -22 109 75 109 52 0 48 38 -6 58 -30 11 -54 7 -72 -11 -39 -39 -79 -33 -106 16 -19 37 -16 48 23 77 62 47 33 90 -32 48 -45 -30 -50 -30 -61 0 -7 18 -21 32 -32 32 -33 0 0 -93 76 -211 38 -61 98 -162 132 -225 34 -63 74 -128 89 -146 15 -17 27 -41 27 -52 0 -12 13 -32 29 -45 16 -13 40 -57 52 -98 13 -40 32 -81 41 -92 17 -18 261 83 275 114 3 8 18 15 32 15 14 0 79 23 143 52 73 32 120 43 124 30 4 -12 20 -22 36 -22 63 0 23 -64 -64 -101 -107 -46 -154 -50 -99 -8 27 20 30 29 10 29 -62 -1 -73 -29 -60 -146 15 -129 21 -120 -142 -211 -95 -54 -127 -62 -194 -51 -63 10 -93 4 -139 -29 -71 -51 -84 -41 -85 65 -3 128 -21 160 -69 123 -42 -32 -170 -42 -170 -14 0 9 -23 29 -51 44 -49 26 -120 147 -111 187 2 10 -8 27 -22 37 -18 13 -15 15 12 6 21 -6 52 1 70 16 18 15 66 39 107 52 100 32 108 53 36 91 -77 39 -77 66 -1 93 33 12 60 34 60 49 0 36 -39 35 -89 -3 -57 -43 -70 -37 -104 46 -18 41 -50 101 -72 132 -44 61 -27 92 50 93 19 0 35 12 35 27 0 47 -25 54 -75 22 -27 -18 -61 -27 -77 -21 -15 6 -51 2 -78 -8 -57 -22 -64 -8 -19 42 33 35 11 169 -37 233 -11 14 -15 31 -8 37 6 6 45 -48 87 -120 43 -76 89 -131 106 -130 21 1 23 4 6 11 -49 20 -24 67 60 109 47 24 90 51 97 61 13 22 78 1 78 -25 0 -10 14 -18 30 -18 22 0 28 13 20 45 -6 25 12 122 41 215 39 128 54 230 61 410 17 411 57 384 75 -51z m788 48 c107 -68 132 -120 77 -165 -19 -16 -28 -79 -30 -216 -4 -217 -12 -242 -61 -197 -19 17 -40 27 -48 21 -7 -5 -9 -5 -4 2 10 14 -16 50 -96 130 -32 32 -51 58 -43 58 8 0 -14 32 -49 72 -80 91 -103 148 -122 298 -8 66 -21 146 -30 178 l-15 59 158 -86 c87 -48 205 -117 263 -154z m1201 -275 c4 -151 -210 -342 -338 -302 -47 15 -28 38 97 117 83 52 85 56 85 163 0 102 20 138 50 90 8 -13 28 -9 56 10 23 16 44 30 45 30 1 0 3 -49 5 -108z m-2484 -737 c19 -36 55 -93 82 -128 l47 -63 -63 -22 c-83 -29 -82 -29 -74 22 4 32 -12 56 -58 85 -72 46 -87 117 -31 149 53 31 61 27 97 -43z m148 -295 c0 -22 11 -41 25 -41 14 -1 4 -10 -23 -21 -32 -13 -56 -11 -75 4 -38 32 -34 73 8 84 61 16 65 15 65 -26z m2820 -136 c0 -65 -79 -136 -284 -256 -21 -13 -64 -47 -95 -77 -73 -70 -98 -5 -81 214 3 36 40 50 40 15 0 -41 52 -20 330 128 81 43 90 41 90 -24z m-568 -235 c18 -96 -13 -197 -63 -206 -46 -9 -467 -285 -562 -369 l-66 -57 -13 53 c-7 29 -8 92 -3 140 5 49 0 97 -12 109 -15 15 -8 21 24 21 25 0 40 -9 33 -20 -31 -50 92 2 353 150 163 92 249 163 213 175 -21 7 -21 15 1 42 44 53 80 39 95 -38z"
    >
    </path>
    <path
        d="M2680 2580 c0 -11 -9 -20 -21 -20 -23 0 -117 -100 -118 -125 -1 -21 176 70 239 122 l50 42 -75 0 c-41 1 -75 -8 -75 -19z"
    >
    </path>
    <path
        d="M1155 1492 c-51 -38 -43 -53 25 -48 33 2 60 6 60 9 0 59 -37 76 -85 39z"
    >
    </path>
    <path
        d="M1730 1480 c-6 -10 -1 -40 12 -65 31 -60 28 -58 65 -43 47 18 41 45 -16 71 -28 13 -45 31 -39 40 6 9 6 17 0 17 -5 0 -15 -9 -22 -20z"
    >
    </path>
    <path
        d="M1333 1086 c-9 -9 -22 -16 -30 -17 -7 0 -43 -20 -80 -43 -69 -43 -37 -85 42 -55 20 8 36 -2 44 -29 25 -78 126 -143 186 -120 92 35 111 59 75 96 -17 18 -51 64 -76 102 -44 68 -126 102 -161 66z"
    >
    </path>
    <path
        d="M1800 904 c-60 -29 -114 -56 -118 -59 -5 -2 0 -23 10 -45 20 -44 278 81 262 128 -12 35 -42 30 -154 -24z"
    >
    </path>
    <path
        d="M1575 805 c-46 -10 -44 -39 4 -64 75 -41 105 -18 56 42 -14 17 -41 27 -60 22z"
    >
    </path>
    <path
        d="M4219 2233 c-76 -52 -378 -233 -389 -233 -3 0 -99 -55 -213 -123 -114 -68 -243 -143 -287 -167 -44 -24 -161 -91 -260 -150 -208 -122 -310 -181 -414 -238 -94 -53 -112 -82 -50 -82 46 0 233 72 254 98 6 7 24 15 40 18 17 4 71 33 120 64 50 31 115 63 145 71 30 7 55 21 55 29 0 9 52 45 115 81 63 35 121 73 128 84 7 11 22 14 33 7 11 -7 24 -4 27 6 10 25 213 142 248 142 16 0 29 9 29 21 0 12 34 36 75 55 41 19 108 54 148 79 111 69 194 -12 130 -126 -56 -99 -185 -268 -206 -268 -32 -1 -128 -119 -152 -186 -20 -59 -52 -70 -91 -31 -39 39 -55 -3 -23 -60 37 -65 90 -80 104 -28 5 20 49 57 97 82 82 43 50 47 -55 9 -35 -13 -35 -12 1 30 21 23 50 43 63 43 14 0 29 8 32 17 14 34 195 102 210 78 8 -13 5 -26 -7 -30 -110 -36 -102 -112 9 -82 l65 18 0 241 c0 232 2 242 51 287 46 42 50 60 45 170 l-6 122 -71 -48z"
    >
    </path>
    <path
        d="M3200 1081 c-28 -68 -38 -70 -145 -32 -71 25 -75 24 -75 -15 0 -76 57 -117 111 -81 27 17 64 25 88 17 29 -9 41 -4 41 17 0 34 42 53 122 53 69 0 77 34 13 58 -124 46 -129 45 -155 -17z"
    >
    </path>
    <path
        d="M2560 1045 c0 -74 103 -188 131 -144 16 26 144 79 191 79 53 0 47 33 -7 46 -104 25 -315 38 -315 19z"
    >
    </path>
    <path
        d="M2855 932 c-89 -54 -84 -66 24 -56 62 6 81 17 81 45 0 57 -24 59 -105 11z"
    >
    </path>
    <path
        d="M2689 855 c-13 -34 76 -184 96 -163 16 15 -24 131 -57 167 -23 24 -28 24 -39 -4z"
    >
    </path>
    <path
        d="M2429 717 c-22 -24 -29 -38 -16 -31 13 8 28 0 34 -16 20 -51 78 -37 62 15 -22 72 -39 79 -80 32z"
    >
    </path>
</g>
</svg>